# xmcd
# Track frame offsets:
# 150
# 20229
# 40598
# 62828
# 87508
# 104373
# 123829
# 146223
# 164859
# 185332
#
# Disc length: 2744 seconds
# Revision: 0
# Processed by: cddbd v1.4PL0 Copyright (c) Steve Scherf et al.
# Submitted via: VisiTrax 2.9.5.181 - For more info visit www.synapsa.com
#
DISCID=910ab60a
DTITLE=Stan Mosley - Good Stuff
DYEAR=2003
DGENRE=Blues
TTITLE0=Good Stuff
TTITLE1=Juke Joint
TTITLE2=If I Were Your Man
TTITLE3=Beat Down
TTITLE4="Til The Cops Come Knockin'
TTITLE5=Ladies Night
TTITLE6=Rockin' Slide
TTITLE7=Let's Get It On
TTITLE8=Do Me
TTITLE9=Sprung
EXTD=
EXTT0=
EXTT1=
EXTT2=
EXTT3=
EXTT4=
EXTT5=
EXTT6=
EXTT7=
EXTT8=
EXTT9=
PLAYORDER=
